<?xml version="1.0" encoding="utf-8"?>
<!-- Generator: Adobe Illustrator 16.0.0, SVG Export Plug-In . SVG Version: 6.00 Build 0)  -->
<!DOCTYPE svg PUBLIC "-//W3C//DTD SVG 1.1//EN" "http://www.w3.org/Graphics/SVG/1.1/DTD/svg11.dtd">
<svg version="1.1" id="Livello_1" xmlns="http://www.w3.org/2000/svg" xmlns:xlink="http://www.w3.org/1999/xlink" x="0px" y="0px"
	 width="565.637px" height="229px" viewBox="0 0 565.637 229" enable-background="new 0 0 565.637 229" xml:space="preserve">
<g>
	<path d="M767.108,733.6l30.751-116.924h91.029l-5.129,19.538h-65.736l-7.026,26.562h63.562l-5.13,19.537h-63.562l-9.094,31.744
		h71.433l-5.212,19.543H767.108z"/>
	<path d="M943.544,699.701l23.207,3.593c-4.286,9.886-10.309,17.412-18.074,22.568c-7.765,5.161-16.615,7.738-26.551,7.738
		c-11.335,0-20.18-3.216-26.542-9.651c-6.363-6.431-9.297-15.287-8.8-26.557c0.401-9.201,2.793-17.894,7.174-26.084
		c4.376-8.186,10.717-14.635,19.02-19.34c8.299-4.704,17.28-7.06,26.939-7.06c10.495,0,18.754,2.609,24.777,7.82
		c6.027,5.212,9.241,12.069,9.65,20.575l-22.961,2.313c-0.353-4.73-1.721-8.216-4.108-10.449c-2.385-2.233-5.59-3.349-9.606-3.349
		c-4.636,0-9.033,1.648-13.197,4.942c-4.166,3.299-7.47,8.232-9.903,14.799c-2.438,6.565-3.783,12.722-4.035,18.462
		c-0.218,4.998,0.896,8.855,3.344,11.565c2.449,2.711,5.603,4.065,9.452,4.065c3.852,0,7.625-1.324,11.314-3.983
		C938.334,709.009,941.303,705.019,943.544,699.701z"/>
	<path d="M979.179,696.433c0.688-15.681,5.885-28.191,15.59-37.523c9.706-9.332,22.121-14.001,37.251-14.001
		c13.118,0,23.211,3.446,30.282,10.332c7.069,6.887,10.345,16.148,9.834,27.795c-0.601,13.718-5.729,25.578-15.379,35.57
		c-9.651,9.997-22.208,14.995-37.673,14.995c-8.373,0-15.729-1.593-22.065-4.784c-6.338-3.192-10.967-7.709-13.893-13.561
		C980.201,709.405,978.887,703.132,979.179,696.433z M1048.399,680.082c0.234-5.42-1.236-9.769-4.413-13.037
		c-3.177-3.274-7.391-4.907-12.638-4.907c-5.192,0-9.866,1.527-14.019,4.587c-4.154,3.06-7.476,7.495-9.965,13.316
		c-2.487,5.82-3.836,11.185-4.052,16.072c-0.267,6.065,1.251,10.875,4.559,14.439c3.304,3.562,7.577,5.343,12.827,5.343
		c6.59,0,12.233-2.684,16.935-8.059C1044.332,700.234,1047.92,690.983,1048.399,680.082z"/>
	<path d="M1144.176,648.896l-4.422,16.752h-16.999l-17.886,67.952h-24.036l17.89-67.952h-13.398l4.417-16.752h13.398l2.309-8.693
		c1.875-7.125,3.568-11.936,5.073-14.437c2.044-3.401,5-6.101,8.854-8.09c3.855-1.999,8.826-2.994,14.911-2.994
		c7.371,0,15.075,1.279,23.113,3.827l-5.405,16.351c-5.669-1.858-10.292-2.791-13.865-2.791c-2.735,0-4.809,0.827-6.221,2.471
		c-0.942,1.065-1.984,3.856-3.131,8.374l-1.605,5.983H1144.176z"/>
	<path d="M1162.053,648.896h24.034l-22.304,84.704h-24.034L1162.053,648.896z M1170.5,616.676h24.034l-5.432,20.735h-24.032
		L1170.5,616.676z"/>
	<path d="M1183.21,733.6l30.835-116.924H1238L1207.242,733.6H1183.21z"/>
</g>
<g>
	<path d="M747.619,936.785l30.751-116.924h91.029l-5.129,19.538h-65.736l-7.026,26.563h63.562l-5.131,19.537h-63.562l-9.094,31.744
		h71.433l-5.212,19.543H747.619z"/>
	<path d="M924.054,902.886l23.207,3.593c-4.286,9.886-10.309,17.412-18.074,22.568c-7.765,5.161-16.615,7.738-26.552,7.738
		c-11.334,0-20.18-3.216-26.541-9.651c-6.363-6.43-9.297-15.286-8.8-26.557c0.401-9.2,2.793-17.894,7.173-26.084
		c4.377-8.186,10.718-14.635,19.021-19.34c8.299-4.704,17.28-7.06,26.939-7.06c10.494,0,18.754,2.609,24.777,7.82
		c6.027,5.212,9.241,12.069,9.65,20.574l-22.961,2.313c-0.353-4.73-1.721-8.216-4.108-10.449c-2.384-2.233-5.59-3.35-9.606-3.35
		c-4.636,0-9.033,1.649-13.197,4.942c-4.167,3.299-7.471,8.232-9.903,14.799c-2.438,6.565-3.784,12.722-4.035,18.462
		c-0.218,4.998,0.896,8.855,3.344,11.564c2.45,2.711,5.604,4.066,9.453,4.066c3.852,0,7.625-1.325,11.314-3.984
		C918.845,912.193,921.813,908.204,924.054,902.886z"/>
	<path d="M1124.687,852.081l-4.422,16.751h-16.999l-17.886,67.952h-24.036l17.889-67.952h-13.398l4.417-16.751h13.398l2.309-8.694
		c1.875-7.125,3.567-11.935,5.072-14.437c2.045-3.401,5-6.102,8.854-8.09c3.855-1.999,8.826-2.994,14.91-2.994
		c7.371,0,15.076,1.278,23.114,3.827l-5.405,16.351c-5.669-1.858-10.292-2.791-13.865-2.791c-2.735,0-4.809,0.827-6.221,2.471
		c-0.942,1.065-1.984,3.856-3.131,8.373l-1.605,5.983H1124.687z"/>
	<path d="M1141.655,852.081h24.035l-22.304,84.704h-24.035L1141.655,852.081z M1150.103,819.861h24.034l-5.433,20.735h-24.032
		L1150.103,819.861z"/>
	<path d="M1162.813,936.785l30.835-116.924h23.955l-30.758,116.924H1162.813z"/>
	<path d="M993.073,918.624c-2.17-0.891-4.093-2.234-5.766-4.037c-3.308-3.563-4.826-8.374-4.559-14.438
		c0.216-4.888,1.565-10.251,4.052-16.072c2.489-5.821,5.811-10.256,9.965-13.316c2.82-2.077,5.886-3.431,9.185-4.097l4.386-17.698
		c-14.62,0.228-26.668,4.881-36.131,13.979c-9.706,9.333-14.902,21.843-15.59,37.524c-0.292,6.699,1.022,12.971,3.948,18.822
		c2.925,5.851,7.554,10.368,13.893,13.56c3.689,1.859,7.736,3.159,12.118,3.934L993.073,918.624z"/>
	<path d="M1041.738,858.46c-5.047-4.915-11.643-8.068-19.771-9.476l-4.341,17.516c2.209,0.816,4.146,2.064,5.795,3.764
		c3.177,3.268,4.648,7.617,4.413,13.037c-0.479,10.901-4.067,20.153-10.767,27.754c-3.576,4.087-7.698,6.614-12.364,7.592
		l-4.495,18.137c14.689-0.355,26.689-5.332,35.984-14.96c9.649-9.992,14.778-21.852,15.379-35.569
		C1052.082,874.608,1048.807,865.347,1041.738,858.46z"/>
</g>
<text transform="matrix(1 0 0 1 762.7764 769.8467)" font-family="'OpenSans'" font-size="36.0456">Differenzia con intelligenza</text>
<text transform="matrix(1 0 0 1 742.8164 975.1826)" font-family="'OpenSans'" font-size="36.0456">Differenzia con intelligenza</text>
<g>
	<path d="M44.89,154.581L75.641,37.657h91.029l-5.129,19.538H95.805l-7.026,26.562h63.562l-5.13,19.537H83.648l-9.094,31.744h71.433
		l-5.212,19.543H44.89z"/>
	<path d="M221.325,120.682l23.207,3.593c-4.286,9.886-10.309,17.412-18.074,22.568c-7.765,5.161-16.615,7.738-26.551,7.738
		c-11.335,0-20.18-3.216-26.542-9.651c-6.363-6.431-9.297-15.287-8.8-26.557c0.401-9.201,2.793-17.894,7.174-26.084
		c4.376-8.186,10.717-14.635,19.02-19.34c8.299-4.704,17.28-7.06,26.939-7.06c10.495,0,18.754,2.609,24.777,7.82
		c6.027,5.212,9.241,12.069,9.65,20.575l-22.961,2.313c-0.353-4.73-1.721-8.216-4.108-10.449c-2.385-2.233-5.59-3.349-9.606-3.349
		c-4.636,0-9.033,1.648-13.197,4.942c-4.166,3.299-7.47,8.232-9.903,14.799c-2.438,6.565-3.783,12.722-4.035,18.462
		c-0.218,4.998,0.896,8.855,3.344,11.565c2.449,2.711,5.603,4.065,9.452,4.065c3.852,0,7.625-1.324,11.314-3.983
		C216.116,129.99,219.084,126,221.325,120.682z"/>
	<path d="M256.96,117.414c0.688-15.681,5.885-28.191,15.59-37.523c9.706-9.332,22.121-14.001,37.251-14.001
		c13.118,0,23.211,3.446,30.282,10.332c7.069,6.887,10.345,16.148,9.834,27.795c-0.601,13.718-5.729,25.578-15.379,35.57
		c-9.651,9.997-22.208,14.995-37.673,14.995c-8.373,0-15.729-1.593-22.065-4.784c-6.338-3.192-10.967-7.709-13.893-13.561
		C257.982,130.386,256.668,124.113,256.96,117.414z M326.181,101.063c0.234-5.42-1.236-9.769-4.413-13.037
		c-3.177-3.274-7.391-4.907-12.638-4.907c-5.192,0-9.866,1.527-14.019,4.587c-4.154,3.06-7.476,7.495-9.965,13.316
		c-2.487,5.82-3.836,11.185-4.052,16.072c-0.267,6.065,1.251,10.875,4.559,14.439c3.304,3.562,7.577,5.343,12.827,5.343
		c6.59,0,12.233-2.684,16.935-8.059C322.113,121.215,325.701,111.964,326.181,101.063z"/>
	<path d="M421.958,69.877l-4.422,16.752h-16.999l-17.886,67.952h-24.036l17.89-67.952h-13.398l4.417-16.752h13.398l2.309-8.693
		c1.875-7.125,3.568-11.936,5.073-14.437c2.044-3.401,5-6.101,8.854-8.09c3.855-1.999,8.826-2.994,14.911-2.994
		c7.371,0,15.075,1.279,23.113,3.827l-5.405,16.351c-5.669-1.858-10.292-2.791-13.865-2.791c-2.735,0-4.809,0.827-6.221,2.471
		c-0.942,1.065-1.984,3.856-3.131,8.374l-1.605,5.983H421.958z"/>
	<path d="M439.834,69.877h24.034l-22.304,84.704H417.53L439.834,69.877z M448.281,37.657h24.034l-5.432,20.735h-24.032
		L448.281,37.657z"/>
	<path d="M460.992,154.581l30.835-116.924h23.954l-30.758,116.924H460.992z"/>
</g>
<g>
	<path d="M17.619,939.785L48.37,822.861h91.029l-5.129,19.538H68.534l-7.026,26.563h63.562l-5.131,19.537H56.377l-9.094,31.744
		h71.433l-5.212,19.543H17.619z"/>
	<path d="M194.054,905.886l23.207,3.593c-4.286,9.886-10.309,17.412-18.074,22.568c-7.765,5.161-16.615,7.738-26.552,7.738
		c-11.334,0-20.18-3.216-26.541-9.651c-6.363-6.43-9.297-15.286-8.8-26.557c0.401-9.2,2.793-17.894,7.173-26.084
		c4.377-8.186,10.718-14.635,19.021-19.34c8.299-4.704,17.28-7.06,26.939-7.06c10.494,0,18.754,2.609,24.777,7.82
		c6.027,5.212,9.241,12.069,9.65,20.574l-22.961,2.313c-0.353-4.73-1.721-8.216-4.108-10.449c-2.384-2.233-5.59-3.35-9.606-3.35
		c-4.636,0-9.033,1.649-13.197,4.942c-4.167,3.299-7.471,8.232-9.903,14.799c-2.438,6.565-3.784,12.722-4.035,18.462
		c-0.218,4.998,0.896,8.855,3.344,11.564c2.45,2.711,5.604,4.066,9.453,4.066c3.852,0,7.625-1.325,11.314-3.984
		C188.845,915.193,191.813,911.204,194.054,905.886z"/>
	<path d="M394.687,855.081l-4.422,16.751h-16.999l-17.886,67.952h-24.036l17.889-67.952h-13.398l4.417-16.751h13.398l2.309-8.694
		c1.875-7.125,3.567-11.935,5.072-14.437c2.045-3.401,5-6.102,8.854-8.09c3.855-1.999,8.826-2.994,14.91-2.994
		c7.371,0,15.076,1.278,23.114,3.827l-5.405,16.351c-5.669-1.858-10.292-2.791-13.865-2.791c-2.735,0-4.809,0.827-6.221,2.471
		c-0.942,1.065-1.984,3.856-3.131,8.373l-1.605,5.983H394.687z"/>
	<path d="M411.655,855.081h24.035l-22.304,84.704h-24.035L411.655,855.081z M420.103,822.861h24.034l-5.433,20.735h-24.032
		L420.103,822.861z"/>
	<path d="M432.813,939.785l30.835-116.924h23.955l-30.758,116.924H432.813z"/>
	<path d="M263.073,921.624c-2.17-0.891-4.093-2.234-5.766-4.037c-3.308-3.563-4.826-8.374-4.559-14.438
		c0.216-4.888,1.565-10.251,4.052-16.072c2.489-5.821,5.811-10.256,9.965-13.316c2.82-2.077,5.886-3.431,9.185-4.097l4.386-17.698
		c-14.62,0.228-26.668,4.881-36.131,13.979c-9.706,9.333-14.902,21.843-15.59,37.524c-0.292,6.699,1.022,12.971,3.948,18.822
		c2.925,5.851,7.554,10.368,13.893,13.56c3.689,1.859,7.736,3.159,12.118,3.934L263.073,921.624z"/>
	<path d="M311.738,861.46c-5.047-4.915-11.643-8.068-19.771-9.476l-4.341,17.516c2.209,0.816,4.146,2.064,5.795,3.764
		c3.177,3.268,4.648,7.617,4.413,13.037c-0.479,10.901-4.067,20.153-10.767,27.754c-3.576,4.087-7.698,6.614-12.364,7.592
		l-4.495,18.137c14.689-0.355,26.689-5.332,35.984-14.96c9.649-9.992,14.778-21.852,15.379-35.569
		C322.082,877.608,318.807,868.347,311.738,861.46z"/>
</g>
<g>
	<path d="M283.121,192.828l-3.538-11.317c-0.223-0.692-0.64-2.265-1.25-4.717h-0.141c-0.469,2.054-0.88,3.638-1.232,4.752
		l-3.644,11.282h-3.379l-5.263-19.29h3.063c1.244,4.846,2.191,8.536,2.842,11.071c0.651,2.534,1.024,4.242,1.118,5.122h0.141
		c0.129-0.669,0.337-1.534,0.625-2.596c0.288-1.062,0.537-1.903,0.748-2.525l3.538-11.071h3.168l3.449,11.071
		c0.657,2.018,1.103,3.713,1.338,5.086h0.141c0.047-0.422,0.173-1.074,0.378-1.954s1.429-5.615,3.67-14.204h3.027l-5.333,19.29
		H283.121z"/>
	<path d="M311.159,192.828l-3.538-11.317c-0.223-0.692-0.64-2.265-1.25-4.717h-0.141c-0.469,2.054-0.88,3.638-1.232,4.752
		l-3.644,11.282h-3.379l-5.263-19.29h3.063c1.244,4.846,2.191,8.536,2.842,11.071c0.651,2.534,1.024,4.242,1.118,5.122h0.141
		c0.129-0.669,0.337-1.534,0.625-2.596c0.288-1.062,0.537-1.903,0.748-2.525l3.538-11.071h3.168l3.449,11.071
		c0.657,2.018,1.103,3.713,1.338,5.086h0.141c0.047-0.422,0.173-1.074,0.378-1.954s1.429-5.615,3.67-14.204h3.027l-5.333,19.29
		H311.159z"/>
	<path d="M339.196,192.828l-3.538-11.317c-0.223-0.692-0.64-2.265-1.25-4.717h-0.141c-0.469,2.054-0.88,3.638-1.232,4.752
		l-3.644,11.282h-3.379l-5.263-19.29h3.063c1.244,4.846,2.191,8.536,2.842,11.071c0.651,2.534,1.024,4.242,1.118,5.122h0.141
		c0.129-0.669,0.337-1.534,0.625-2.596c0.288-1.062,0.537-1.903,0.748-2.525l3.538-11.071h3.168l3.449,11.071
		c0.657,2.018,1.103,3.713,1.338,5.086h0.141c0.047-0.422,0.173-1.074,0.378-1.954s1.429-5.615,3.67-14.204h3.027l-5.333,19.29
		H339.196z"/>
	<path d="M351.059,190.962c0-0.786,0.179-1.381,0.537-1.786c0.358-0.405,0.872-0.607,1.54-0.607c0.681,0,1.211,0.202,1.593,0.607
		c0.381,0.405,0.572,1,0.572,1.786c0,0.763-0.194,1.35-0.581,1.76s-0.915,0.616-1.584,0.616c-0.598,0-1.094-0.185-1.487-0.554
		S351.059,191.807,351.059,190.962z"/>
	<path d="M369.222,193.18c-2.851,0-5.101-0.868-6.75-2.605c-1.649-1.736-2.473-4.147-2.473-7.234c0-3.109,0.766-5.579,2.297-7.41
		c1.531-1.83,3.587-2.746,6.169-2.746c2.417,0,4.33,0.795,5.738,2.385c1.408,1.59,2.112,3.688,2.112,6.292v1.848h-13.288
		c0.059,2.265,0.631,3.984,1.716,5.157c1.085,1.173,2.613,1.76,4.584,1.76c2.077,0,4.13-0.434,6.16-1.302v2.605
		c-1.033,0.446-2.009,0.766-2.93,0.959C371.636,193.083,370.524,193.18,369.222,193.18z M368.43,175.632
		c-1.549,0-2.784,0.505-3.705,1.514c-0.921,1.009-1.464,2.406-1.628,4.189h10.085c0-1.842-0.411-3.253-1.232-4.233
		C371.129,176.122,369.956,175.632,368.43,175.632z"/>
	<path d="M389.005,193.18c-2.792,0-4.955-0.859-6.486-2.579c-1.531-1.719-2.297-4.15-2.297-7.295c0-3.227,0.777-5.72,2.332-7.48
		s3.77-2.64,6.644-2.64c0.927,0,1.854,0.1,2.781,0.299c0.927,0.2,1.654,0.434,2.182,0.704l-0.897,2.481
		c-0.646-0.258-1.35-0.472-2.112-0.642c-0.763-0.17-1.438-0.255-2.024-0.255c-3.919,0-5.878,2.499-5.878,7.498
		c0,2.371,0.478,4.189,1.435,5.456c0.956,1.268,2.373,1.901,4.25,1.901c1.607,0,3.256-0.346,4.946-1.038v2.587
		C392.589,192.845,390.964,193.18,389.005,193.18z"/>
	<path d="M415.106,183.165c0,3.145-0.792,5.6-2.376,7.366c-1.584,1.766-3.772,2.649-6.565,2.649c-1.725,0-3.256-0.405-4.594-1.214
		c-1.337-0.81-2.37-1.971-3.098-3.485s-1.091-3.285-1.091-5.315c0-3.145,0.786-5.594,2.358-7.348
		c1.572-1.754,3.755-2.631,6.547-2.631c2.699,0,4.843,0.897,6.433,2.693C414.311,177.674,415.106,180.103,415.106,183.165z
		 M400.41,183.165c0,2.464,0.493,4.341,1.479,5.632c0.985,1.291,2.435,1.936,4.347,1.936s3.364-0.643,4.356-1.927
		c0.992-1.285,1.487-3.165,1.487-5.641c0-2.452-0.496-4.315-1.487-5.588c-0.992-1.273-2.455-1.91-4.391-1.91
		c-1.913,0-3.356,0.627-4.33,1.883C400.896,178.806,400.41,180.678,400.41,183.165z"/>
	<path d="M428.923,175.808h-4.911v17.02h-2.922v-17.02h-3.45v-1.32l3.45-1.056v-1.074c0-4.74,2.071-7.11,6.213-7.11
		c1.021,0,2.218,0.205,3.591,0.616l-0.757,2.341c-1.126-0.363-2.089-0.545-2.887-0.545c-1.103,0-1.918,0.367-2.446,1.1
		c-0.528,0.733-0.792,1.91-0.792,3.529v1.25h4.911V175.808z"/>
	<path d="M432.196,168.311c0-0.669,0.165-1.159,0.493-1.47c0.328-0.311,0.739-0.466,1.232-0.466c0.469,0,0.874,0.158,1.214,0.475
		s0.51,0.804,0.51,1.461s-0.17,1.147-0.51,1.469c-0.34,0.323-0.745,0.484-1.214,0.484c-0.493,0-0.904-0.161-1.232-0.484
		C432.36,169.458,432.196,168.968,432.196,168.311z M435.364,192.828h-2.922v-19.29h2.922V192.828z"/>
	<path d="M444.481,192.828h-2.922v-27.386h2.922V192.828z"/>
	<path d="M450.254,190.962c0-0.786,0.179-1.381,0.537-1.786c0.358-0.405,0.872-0.607,1.54-0.607c0.681,0,1.211,0.202,1.593,0.607
		c0.381,0.405,0.572,1,0.572,1.786c0,0.763-0.194,1.35-0.581,1.76s-0.915,0.616-1.584,0.616c-0.598,0-1.094-0.185-1.487-0.554
		S450.254,191.807,450.254,190.962z"/>
	<path d="M460.022,168.311c0-0.669,0.165-1.159,0.493-1.47c0.328-0.311,0.739-0.466,1.232-0.466c0.469,0,0.874,0.158,1.214,0.475
		s0.51,0.804,0.51,1.461s-0.17,1.147-0.51,1.469c-0.34,0.323-0.745,0.484-1.214,0.484c-0.493,0-0.904-0.161-1.232-0.484
		C460.187,169.458,460.022,168.968,460.022,168.311z M463.19,192.828h-2.922v-19.29h2.922V192.828z"/>
	<path d="M475.616,190.769c0.516,0,1.015-0.038,1.496-0.115c0.481-0.076,0.862-0.155,1.144-0.237v2.235
		c-0.317,0.152-0.783,0.278-1.399,0.378c-0.616,0.099-1.17,0.149-1.663,0.149c-3.731,0-5.597-1.965-5.597-5.896v-11.476h-2.764
		V174.4l2.764-1.214l1.232-4.119h1.689v4.471h5.597v2.271h-5.597v11.352c0,1.162,0.275,2.054,0.827,2.675
		C473.897,190.458,474.654,190.769,475.616,190.769z"/>
</g>
<text transform="matrix(1 0 0 1 236.4897 976.8467)" font-family="'OpenSans'" font-size="36.0456">www.ecofil.it</text>
</svg>
